<?xml version="1.0" encoding="utf-8"?>
<!-- Generator: Adobe Illustrator 18.1.0, SVG Export Plug-In . SVG Version: 6.00 Build 0)  -->
<!DOCTYPE svg PUBLIC "-//W3C//DTD SVG 1.1//EN" "http://www.w3.org/Graphics/SVG/1.1/DTD/svg11.dtd">
<svg version="1.1" id="Layer_1" xmlns="http://www.w3.org/2000/svg" xmlns:xlink="http://www.w3.org/1999/xlink" x="0px" y="0px"
	 viewBox="0 0 612 792" enable-background="new 0 0 612 792" xml:space="preserve">
<path fill="#FFFFFF" stroke="#000000" stroke-miterlimit="10" d="M73.3,228.5c-7.3,0.4-11.5-8.3-6.6-13.7
	C129.7,145.5,269,150,306,168c39,19,120,75,88,129S205,463,153,443s25-92,12-142s-21-83-63-76C89.1,227.1,79.9,228.2,73.3,228.5z"/>
<path fill="none" stroke="#000000" stroke-miterlimit="10" d="M247,647.2c0-46.1,26.4-83.5,59-83.5"/>
<path fill="none" stroke="#000000" stroke-miterlimit="10" d="M462.6,55.5c-10.1,19.8-34.4,27.6-54.1,17.4
	c-15.8-8.1-22.1-27.5-13.9-43.3c6.5-12.6,22-17.6,34.6-11.2c10.1,5.2,14.1,17.6,8.9,27.7c-4.2,8.1-14.1,11.3-22.2,7.1
	c-6.5-3.3-9-11.3-5.7-17.7c2.7-5.2,9-7.2,14.2-4.6c4.1,2.1,5.8,7.2,3.7,11.4c-1.7,3.3-5.8,4.6-9.1,2.9c-2.7-1.4-3.7-4.6-2.3-7.3"/>
<g>
	<rect x="50.7" y="24.3" fill="none" stroke="#000000" stroke-miterlimit="10" width="168.8" height="68.8"/>
	<line fill="none" stroke="#000000" stroke-miterlimit="10" x1="50.7" y1="81.6" x2="219.5" y2="81.6"/>
	<line fill="none" stroke="#000000" stroke-miterlimit="10" x1="50.7" y1="70.1" x2="219.5" y2="70.1"/>
	<line fill="none" stroke="#000000" stroke-miterlimit="10" x1="50.7" y1="58.7" x2="219.5" y2="58.7"/>
	<line fill="none" stroke="#000000" stroke-miterlimit="10" x1="50.7" y1="47.2" x2="219.5" y2="47.2"/>
	<line fill="none" stroke="#000000" stroke-miterlimit="10" x1="50.7" y1="35.7" x2="219.5" y2="35.7"/>
	<line fill="none" stroke="#000000" stroke-miterlimit="10" x1="191.3" y1="24.3" x2="191.3" y2="93.1"/>
	<line fill="none" stroke="#000000" stroke-miterlimit="10" x1="163.2" y1="24.3" x2="163.2" y2="93.1"/>
	<line fill="none" stroke="#000000" stroke-miterlimit="10" x1="135.1" y1="24.3" x2="135.1" y2="93.1"/>
	<line fill="none" stroke="#000000" stroke-miterlimit="10" x1="106.9" y1="24.3" x2="106.9" y2="93.1"/>
	<line fill="none" stroke="#000000" stroke-miterlimit="10" x1="78.8" y1="24.3" x2="78.8" y2="93.1"/>
</g>
<g>
	<g>
		<path fill="none" stroke="#000000" stroke-miterlimit="10" d="M480.5,594.9c-41.3,0-74.8-33.4-74.8-74.8s33.4-74.8,74.8-74.8
			s74.8,33.4,74.8,74.8S521.8,594.9,480.5,594.9z"/>
		<path fill="none" stroke="#000000" stroke-miterlimit="10" d="M542.8,520.1c0-34.4-27.9-62.3-62.3-62.3s-62.3,27.9-62.3,62.3
			s27.9,62.3,62.3,62.3S542.8,554.6,542.8,520.1z"/>
		<path fill="none" stroke="#000000" stroke-miterlimit="10" d="M480.5,570c-27.6,0-49.9-22.3-49.9-49.9c0-27.6,22.3-49.9,49.9-49.9
			c27.6,0,49.9,22.3,49.9,49.9C530.3,547.7,508,570,480.5,570z"/>
		<path fill="none" stroke="#000000" stroke-miterlimit="10" d="M517.9,520.1c0-20.7-16.7-37.4-37.4-37.4s-37.4,16.7-37.4,37.4
			c0,20.7,16.7,37.4,37.4,37.4S517.9,540.8,517.9,520.1z"/>
		<path fill="none" stroke="#000000" stroke-miterlimit="10" d="M480.5,545.1c-13.8,0-24.9-11.1-24.9-24.9
			c0-13.8,11.1-24.9,24.9-24.9s24.9,11.1,24.9,24.9C505.4,533.9,494.3,545.1,480.5,545.1z"/>
		<path fill="none" stroke="#000000" stroke-miterlimit="10" d="M492.9,520.1c0-6.9-5.6-12.5-12.5-12.5c-6.9,0-12.5,5.6-12.5,12.5
			s5.6,12.5,12.5,12.5C487.4,532.6,492.9,527,492.9,520.1z"/>
	</g>
	<g>
		<line fill="none" stroke="#000000" stroke-miterlimit="10" x1="480.5" y1="520.1" x2="480.5" y2="594.9"/>
		<line fill="none" stroke="#000000" stroke-miterlimit="10" x1="480.5" y1="520.1" x2="551.6" y2="543.2"/>
		<line fill="none" stroke="#000000" stroke-miterlimit="10" x1="480.5" y1="520.1" x2="524.4" y2="459.6"/>
		<line fill="none" stroke="#000000" stroke-miterlimit="10" x1="480.5" y1="520.1" x2="436.5" y2="459.6"/>
		<line fill="none" stroke="#000000" stroke-miterlimit="10" x1="480.5" y1="520.1" x2="409.4" y2="543.2"/>
	</g>
</g>
<path fill="none" stroke="#000000" stroke-miterlimit="10" d="M133.2,605.9c-2.9,12.6-36.3,6.1-46.8,24.8
	c-13.3,23.7,15.7,78.3,45.9,80.7c41.9,3.3,93.6-93.6,70.6-126.6c-19.2-27.6-84.2-1.1-100-30.3c-13-24,21.7-58.9,11.9-67.9
	c-10.3-9.4-63.3,16.1-63.3,43.1C51.5,564.3,138,585.6,133.2,605.9z"/>
<path fill="none" stroke="#000000" stroke-miterlimit="10" d="M516,156.6c24.5,0,52.5,25.4,52.5,52.5s-16.2,46-46,46
	c-29.7,0-56.7-8.2-56.7-56.7S516,156.6,516,156.6z"/>
</svg>
